<?xml version="1.0" encoding="UTF-8" standalone="no"?>
<svg
  width="200"
  height="120"
  viewBox="0 0 200 120"
  xmlns="http://www.w3.org/2000/svg"
>
  <!-- Body of the beetle -->
  <ellipse cx="100" cy="70" rx="30" ry="20" fill="#3a2c1a" />
  <!-- Head of the beetle -->
  <circle cx="130" cy="60" r="12" fill="#3a2c1a" />
  <!-- Mandibles -->
  <path d="M140 55 L150 50 L145 60 Z" fill="#5a4a3a" />
  <path d="M140 65 L150 70 L145 60 Z" fill="#5a4a3a" />
  <!-- Legs -->
  <line x1="90" y1="80" x2="70" y2="95" stroke="#5a4a3a" stroke-width="2" />
  <line x1="95" y1="80" x2="75" y2="95" stroke="#5a4a3a" stroke-width="2" />
  <line x1="110" y1="80" x2="130" y2="95" stroke="#5a4a3a" stroke-width="2" />
  <line x1="115" y1="80" x2="135" y2="95" stroke="#5a4a3a" stroke-width="2" />
  <!-- Elytra (wing covers) -->
  <path d="M80 60 L60 40 L110 30 L130 50 Z" fill="#5a4a3a" />
  <path d="M120 60 L140 40 L190 30 L170 50 Z" fill="#5a4a3a" />
  <!-- Antennae -->
  <line x1="130" y1="50" x2="140" y2="35" stroke="#5a4a3a" stroke-width="1" />
  <line x1="130" y1="55" x2="145" y2="40" stroke="#5a4a3a" stroke-width="1" />
</svg>
