<svg width="200" height="120" viewBox="0 0 200 120" xmlns="http://www.w3.org/2000/svg">
  <!-- Hong's Masterpiece (Not for the weak-stomached) -->
  <defs>
    <linearGradient id="hongGradient" x1="0%" y1="0%" x2="100%" y2="100%">
      <stop offset="0%" stop-color="#3a1c0d" />
      <stop offset="100%" stop-color="#1e0d05" />
    </linearGradient>
    <filter id="hongFilter" x="-20%" y="-20%" width="140%" height="140%">
      <feGaussianBlur stdDeviation="1" result="blur" />
      <feComposite in="SourceGraphic" in2="blur" operator="over" />
    </filter>
  </defs>

  <!-- Body: A beetle that's seen things -->
  <ellipse cx="100" cy="80" rx="40" ry="25" fill="url(#hongGradient)" filter="url(#hongFilter)" />

  <!-- Shell: The weight of existence -->
  <path d="M60,60 Q100,30 140,60 L130,70 Q100,90 70,70 Z" fill="url(#hongGradient)" stroke="#000" stroke-width="1.5" />

  <!-- Legs: Built for escape -->
  <line x1="70" y1="90" x2="40" y2="110" stroke="#000" stroke-width="2" stroke-linecap="round" />
  <line x1="80" y1="95" x2="50" y2="110" stroke="#000" stroke-width="2" stroke-linecap="round" />
  <line x1="120" y1="95" x2="150" y2="110" stroke="#000" stroke-width="2" stroke-linecap="round" />
  <line x1="130" y1="90" x2="160" y2="110" stroke="#000" stroke-width="2" stroke-linecap="round" />

  <!-- Eyes: Judging you -->
  <circle cx="85" cy="70" r="3" fill="#ff0000" />
  <circle cx="115" cy="70" r="3" fill="#ff0000" />
<!-- Mandibles: For chewing through your excuses -->
  <path d="M60,80 Q70,75 75,80" stroke="#000" stroke-width="1.5" fill="none" />
  <path d="M140,80 Q130,75 125,80" stroke="#000" stroke-width="1.5" fill="none" />
</svg>
