<svg
  width="200"
  height="200"
  viewBox="0 0 200 200"
  xmlns="http://www.w3.org/2000/svg"
  role="img"
  aria-labelledby="title desc"
>
  <title id="title">Beetle v2</title>
  <desc id="desc">
    A line drawing of a beetle. This version uses CSS variables for easy theming
    and groups elements for better organization.
  </desc>
  <style>
    :root {
      --beetle-stroke-color: black;
      --beetle-stroke-width: 2;
      --beetle-fill-color: none;
    }
    .beetle {
      stroke: var(--beetle-stroke-color);
      stroke-width: var(--beetle-stroke-width);
      fill: var(--beetle-fill-color);
    }
  </style>
  <g class="beetle">
    <path
      d="M100 50 C 70 50, 60 80, 60 100 C 60 140, 80 160, 100 160 C 120 160, 140 140, 140 100 C 140 80, 130 50, 100 50 Z"
    />
    <path d="M100 50 L 100 20" />
    <path d="M100 20 L 80 10" />
    <path d="M100 20 L 120 10" />
    <path d="M60 100 L 40 80" />
    <path d="M60 100 L 40 120" />
    <path d="M140 100 L 160 80" />
    <path d="M140 100 L 160 120" />
    <path d="M80 150 L 70 170" />
    <path d="M120 150 L 130 170" />
  </g>
</svg>
