<svg width="400" height="400" viewBox="-200 -200 400 400" xmlns="http://www.w3.org/2000/svg"><defs><radialGradient id="mandalaGradient" cx="0" cy="0" r="1" gradientUnits="userSpaceOnUse"><stop offset="0%" stop-color="#ff9a9e"/><stop offset="50%" stop-color="#fad0c4"/><stop offset="100%" stop-color="#d4a5ff"/></radialGradient><g id="petal"><path d="M0,0 L20,-50 Q30,-70 50,-50 Q70,-30 50,0 Q70,30 50,50 Q30,70 20,50 Z" fill="url(#mandalaGradient)" stroke="#fff" stroke-width="1"/></g></defs><circle cx="0" cy="0" r="20" fill="#fff" opacity="0.8"/><g><use href="#petal" transform="rotate(0)"/><use href="#petal" transform="rotate(45)"/><use href="#petal" transform="rotate(90)"/><use href="#petal" transform="rotate(135)"/><use href="#petal" transform="rotate(180)"/><use href="#petal" transform="rotate(225)"/><use href="#petal" transform="rotate(270)"/><use href="#petal" transform="rotate(315)"/></g><circle cx="0" cy="0" r="100" fill="none" stroke="url(#mandalaGradient)" stroke-width="8"/><circle cx="0" cy="0" r="150" fill="none" stroke="url(#mandalaGradient)" stroke-width="4"/><g stroke="#fff" stroke-width="1"><line x1="0" y1="-120" x2="0" y2="-180"/><line x1="0" y1="120" x2="0" y2="180"/><line x1="-120" y1="0" x2="-180" y2="0"/><line x1="120" y1="0" x2="180" y2="0"/><line x1="-85" y1="-85" x2="-120" y2="-120"/><line x1="85" y1="85" x2="120" y2="120"/><line x1="-85" y1="85" x2="-120" y2="120"/><line x1="85" y1="-85" x2="120" y2="-120"/></g></svg>
